# xmcd
#
# Track frame offsets:
#  150
#  20266
#  36947
#  51258
#  71411
#  86844
#  99675
#  114989
#  137623
#  158052
#  171971
#  194195
#  215367
#  230058
#
# Disc length: 3171 seconds
#
# Revision: 1
# Processed by: cddbd v1.5.1PL2 Copyright (c) Steve Scherf et al.
# Submitted via: Collectorz.com_Music_Collector 6.11
#
DISCID=c70c610e
DTITLE=Eric Lindell - Change In The Weather
DYEAR=2006
DGENRE=Blues
TTITLE0=Give It Time
TTITLE1=Two-Bit Town
TTITLE2=Feel Like I Do
TTITLE3=All Alone
TTITLE4=Should Have Known
TTITLE5=Casanova
TTITLE6=See Me Through
TTITLE7=Sunny Daze
TTITLE8=It Won't Be Long
TTITLE9=Sad But True
TTITLE10=Let Me Know
TTITLE11=Uncle John
TTITLE12=Lady Jane
TTITLE13=Lazy Days
EXTD=
EXTT0=
EXTT1=
EXTT2=
EXTT3=
EXTT4=
EXTT5=
EXTT6=
EXTT7=
EXTT8=
EXTT9=
EXTT10=
EXTT11=
EXTT12=
EXTT13=
PLAYORDER=
